PathFileType	4	(X/Y/Z)	 s11c0301.trc
DataRate	CameraRate	NumFrames	NumMarkers	Units	OrigDataRate	OrigDataStartFrame	OrigNumFrames
200	200	4	48	mm	200	1001	2000
Frame#	Time	racr			lacr			c7			jug			rlel			rdr			llel			ldr			s2			lic			ric			lasi			rasi			rpsi			lpsi			rgt			lgt			rth1			rth2			rth3			rth4			rlfc			rmfc			rsh1			rsh2			rsh3			rsh4			rlmal			rcal			rtoe			rmt5			lth1			lth2			lth4			lth3			llfc			lmfc			llmal			lcal			lmt5			lsh1			lsh2			lsh3			lsh4			ltoe			SBIKE			LBIKE			RBIKE			
		X1	Y1	Z1	X2	Y2	Z2	X3	Y3	Z3	X4	Y4	Z4	X5	Y5	Z5	X6	Y6	Z6	X7	Y7	Z7	X8	Y8	Z8	X9	Y9	Z9	X10	Y10	Z10	X11	Y11	Z11	X12	Y12	Z12	X13	Y13	Z13	X14	Y14	Z14	X15	Y15	Z15	X16	Y16	Z16	X17	Y17	Z17	X18	Y18	Z18	X19	Y19	Z19	X20	Y20	Z20	X21	Y21	Z21	X22	Y22	Z22	X23	Y23	Z23	X24	Y24	Z24	X25	Y25	Z25	X26	Y26	Z26	X27	Y27	Z27	X28	Y28	Z28	X29	Y29	Z29	X30	Y30	Z30	X31	Y31	Z31	X32	Y32	Z32	X33	Y33	Z33	X34	Y34	Z34	X35	Y35	Z35	X36	Y36	Z36	X37	Y37	Z37	X38	Y38	Z38	X39	Y39	Z39	X40	Y40	Z40	X41	Y41	Z41	X42	Y42	Z42	X43	Y43	Z43	X44	Y44	Z44	X45	Y45	Z45	X46	Y46	Z46	X47	Y47	Z47	X48	Y48	Z48	
1001	5.0050	802.747984	1403.769444	-0.895916	825.436434	1385.472584	-340.332545	784.375985	1487.513536	-175.159869	764.876807	1296.685059	-170.078691	675.248318	1150.044394	93.314973	798.180638	930.267218	-24.753432	697.856701	1178.778053	-551.973700	818.599391	929.630473	-436.829229	183.303187	1286.599502	-222.729281	418.078247	1250.999987	-397.800961	391.094443	1280.582932	-8.168858	430.951432	1185.468664	-355.101852	410.323445	1211.114505	-49.370851	237.633722	1352.515213	-174.163227	239.098792	1341.093881	-267.455360	337.425934	1151.525176	14.692950	277.971067	1139.428452	-409.848819	453.727396	1065.890349	19.559511	536.917254	1033.064804	11.528132	592.508803	966.539109	3.957908	556.404164	1062.344838	0.514006	673.691978	895.144764	-12.805631	681.111948	881.109647	-148.209468	561.036758	789.314668	-17.162574	508.304147	725.394041	-44.986417	427.545581	692.220210	-55.307562	527.492373	709.187413	-75.296574	306.681885	623.723019	-79.673485	260.977624	669.604300	-130.861759	386.890571	410.827801	-135.966630	326.310688	453.983302	-66.590474	290.068198	1007.821913	-425.580570	312.098113	925.849993	-419.616309	348.778062	925.149415	-414.532185	289.030410	839.089897	-411.682730	288.242871	697.124022	-391.801033	302.282047	680.790525	-260.964111	157.079565	285.781583	-403.419360	95.467014	272.184292	-373.692232	262.180058	147.436536	-443.766216	238.290037	581.483809	-419.816630	239.748941	495.739737	-413.536837	198.154872	417.857576	-413.699243	272.518770	488.718595	-394.284847	359.349699	131.933785	-374.488438	-204.388896	957.582671	-261.864446	1.442377	82.529426	-461.023246	-15.096499	81.252746	-62.533842	
1002	5.0100	801.911606	1403.695338	2.305657	826.021436	1387.706077	-336.586380	784.166079	1487.595689	-171.702563	764.293321	1296.033795	-167.675022	674.639029	1149.751538	94.732024	798.105382	930.532854	-24.425708	701.688869	1181.114553	-549.912811	819.267675	929.713188	-436.617110	182.976972	1288.038442	-223.955071	420.019173	1251.600585	-397.069030	389.496735	1282.142381	-7.946496	432.361020	1185.258807	-354.972561	409.577120	1213.114779	-49.364482	237.425392	1353.728603	-176.146119	239.488477	1342.616059	-269.352386	337.592841	1153.919808	13.855429	278.552563	1140.899741	-410.235332	454.458266	1069.044249	19.163254	538.202681	1036.910658	10.976081	594.701479	970.578979	1.860453	557.416076	1066.443505	-0.069838	677.400249	901.317306	-13.830924	683.459120	887.490435	-150.147402	567.043214	793.775824	-18.017587	515.692424	728.374869	-45.437109	435.414402	693.927505	-55.659609	534.773157	712.671625	-76.133416	313.895197	622.798371	-79.728455	266.947963	667.687424	-130.868793	398.638523	411.726302	-135.850136	337.382004	453.529735	-66.354544	289.130601	1009.717556	-425.473333	310.551107	927.593496	-419.889074	347.273628	926.606687	-415.341984	286.898209	840.964358	-412.004094	285.850351	698.981520	-393.015064	302.330354	681.436041	-262.099777	149.244049	289.234534	-403.217626	87.550501	276.544012	-373.173195	251.795890	149.027048	-443.978938	234.890380	583.647978	-420.284964	235.144926	497.829590	-414.032969	192.395228	420.721744	-413.781654	268.061448	490.417725	-395.072634	348.977941	131.770228	-375.069554	-204.405930	957.610867	-261.757625	1.441562	82.571137	-460.993368	-15.097561	81.274716	-62.525656	
1003	5.0150	801.288145	1403.246003	5.144580	826.488769	1389.636044	-332.903527	783.996426	1487.426929	-168.537127	763.647039	1295.171553	-165.380306	674.000027	1149.355621	95.913109	798.048189	930.770023	-24.164909	705.106295	1183.414754	-547.944225	819.827017	929.729177	-436.340651	183.095777	1289.822351	-224.999292	421.706700	1252.194101	-396.557858	388.047246	1283.910751	-7.531665	433.496315	1185.230224	-355.230490	408.889716	1215.144160	-49.213797	236.039952	1355.825792	-176.607735	239.915717	1344.369535	-270.753512	338.101312	1155.976833	13.464017	278.983772	1142.599254	-410.499146	454.918967	1071.576672	19.180102	539.381513	1040.705262	10.273816	596.489611	974.619447	0.666800	556.773266	1070.823911	-0.183954	680.767208	907.306811	-15.800078	686.826371	894.673720	-151.568847	572.092513	797.066451	-19.267124	522.013145	730.880831	-46.060870	442.345236	694.704876	-55.853311	543.222535	715.494388	-76.018251	320.708754	621.055642	-79.763655	272.456001	664.819156	-130.849275	410.298827	412.107796	-135.735273	348.226790	452.579885	-66.152864	288.683693	1011.627734	-425.358377	309.773955	929.470934	-420.173613	346.487017	928.306176	-416.111667	285.797368	842.978892	-412.688820	284.953031	700.834218	-394.348622	303.302763	682.226310	-263.401088	141.522789	293.068874	-403.113630	79.891806	281.448398	-372.299851	241.382248	151.304178	-444.228687	232.846298	586.046792	-420.966519	231.466447	500.287648	-414.522954	187.269324	423.990761	-414.054083	264.405803	492.223384	-395.841438	338.689752	132.366611	-376.124499	-204.435550	957.671796	-261.705202	1.429001	82.596054	-460.973864	-15.101491	81.323236	-62.530167	
1004	5.0200	800.827193	1402.663608	7.719938	826.683911	1391.176016	-329.156729	783.986803	1486.897480	-165.319755	762.940539	1294.120319	-163.200076	673.454214	1148.755685	96.976452	797.960715	931.020648	-23.920678	708.202805	1185.532764	-546.072545	820.361708	929.682451	-436.090525	183.796481	1291.517309	-226.170748	422.951258	1253.099179	-396.004410	386.549301	1285.829878	-7.317479	434.267828	1185.704395	-355.229602	408.305217	1217.231551	-48.965707	235.739656	1357.855981	-177.554173	240.037035	1346.363049	-272.267226	338.712421	1158.394948	13.403691	279.230271	1144.609254	-410.685622	455.601021	1074.496091	18.841445	540.431353	1044.317919	9.426500	597.991013	978.696510	-0.533593	557.445658	1074.733396	-1.080729	682.917885	912.898343	-17.511938	690.075161	901.182506	-153.058112	576.142527	799.993422	-19.999657	526.957532	732.045582	-46.949791	448.051764	694.556117	-56.158563	547.389373	717.172789	-77.487460	327.174495	618.748893	-79.787754	277.599964	661.175100	-130.740197	421.716800	412.061830	-135.620744	358.793469	450.990675	-65.926698	288.801487	1013.852468	-425.348613	309.825688	931.555137	-420.541634	346.542617	930.270157	-416.783668	285.870423	844.930175	-413.576944	285.633369	702.471036	-395.900253	305.414072	682.931471	-265.039085	134.111292	297.559004	-402.941178	72.331878	286.892992	-371.495651	231.327098	154.311850	-444.346088	232.099321	588.616158	-421.848056	228.757020	502.825000	-415.139627	182.825853	427.593770	-414.331563	261.593767	494.174047	-396.604239	328.486954	133.596449	-376.876265	-204.440333	957.714759	-261.649973	1.423534	82.626690	-460.970087	-15.098203	81.342667	-62.522688	
